<svg xmlns="http://www.w3.org/2000/svg" viewBox="0 0 512 512" width="512" height="512" role="img" aria-label="Massif Maps">
  <title>Massif Maps</title>
  <!-- Generated by scripts/gen-branding.mjs - do not edit. -->
  <defs>
    <linearGradient id="mmTealLit" x1="0" y1="231" x2="0" y2="402" gradientUnits="userSpaceOnUse">
      <stop offset="0" stop-color="#12E3CF"/><stop offset="1" stop-color="#00AB9C"/>
    </linearGradient>
    <linearGradient id="mmTealShade" x1="0" y1="231" x2="0" y2="402" gradientUnits="userSpaceOnUse">
      <stop offset="0" stop-color="#00A093"/><stop offset="1" stop-color="#00736A"/>
    </linearGradient>
    <linearGradient id="mmBlueLit" x1="0" y1="128" x2="0" y2="402" gradientUnits="userSpaceOnUse">
      <stop offset="0" stop-color="#4FA3F7"/><stop offset="1" stop-color="#1C74D4"/>
    </linearGradient>
    <linearGradient id="mmBlueShade" x1="0" y1="128" x2="0" y2="402" gradientUnits="userSpaceOnUse">
      <stop offset="0" stop-color="#0C58B6"/><stop offset="1" stop-color="#063877"/>
    </linearGradient>
    <clipPath id="mmClip0"><path d="M159 231 L56 402 L256 402 Z"/></clipPath>
    <clipPath id="mmClip1"><path d="M296 128 L147 402 L456 402 Z"/></clipPath>
  </defs>
  <path d="M159 231 L56 402 L170 402 Z" fill="url(#mmTealLit)"/>
  <path d="M159 231 L170 402 L256 402 Z" fill="url(#mmTealShade)"/>
  <g clip-path="url(#mmClip0)" fill="none" stroke="#ffffff" stroke-opacity="0.22" stroke-width="3.5">
    <path d="M-41 272 Q159 292 359 272"/>
    <path d="M-41 304 Q159 324 359 304"/>
    <path d="M-41 336 Q159 356 359 336"/>
    <path d="M-41 368 Q159 388 359 368"/>
  </g>
  <path d="M296 128 L147 402 L308 402 Z" fill="url(#mmBlueLit)"/>
  <path d="M296 128 L308 402 L456 402 Z" fill="url(#mmBlueShade)"/>
  <g clip-path="url(#mmClip1)" fill="none" stroke="#ffffff" stroke-opacity="0.22" stroke-width="3.5">
    <path d="M56 176 Q296 196 536 176"/>
    <path d="M56 208 Q296 228 536 208"/>
    <path d="M56 240 Q296 260 536 240"/>
    <path d="M56 272 Q296 292 536 272"/>
    <path d="M56 304 Q296 324 536 304"/>
    <path d="M56 336 Q296 356 536 336"/>
    <path d="M56 368 Q296 388 536 368"/>
  </g>
</svg>
