<svg xmlns="http://www.w3.org/2000/svg" width="1200" height="630" viewBox="0 0 1200 630" role="img" aria-label="Massif Maps - vector maps, 3D terrain, routing and geocoding on Android, iOS and more">
  <title>Massif Maps</title>
  <!-- Generated by scripts/gen-branding.mjs - do not edit. -->
  <defs>
    <linearGradient id="mmTealLit" x1="0" y1="231" x2="0" y2="402" gradientUnits="userSpaceOnUse">
      <stop offset="0" stop-color="#12E3CF"/><stop offset="1" stop-color="#00AB9C"/>
    </linearGradient>
    <linearGradient id="mmTealShade" x1="0" y1="231" x2="0" y2="402" gradientUnits="userSpaceOnUse">
      <stop offset="0" stop-color="#00A093"/><stop offset="1" stop-color="#00736A"/>
    </linearGradient>
    <linearGradient id="mmBlueLit" x1="0" y1="128" x2="0" y2="402" gradientUnits="userSpaceOnUse">
      <stop offset="0" stop-color="#4FA3F7"/><stop offset="1" stop-color="#1C74D4"/>
    </linearGradient>
    <linearGradient id="mmBlueShade" x1="0" y1="128" x2="0" y2="402" gradientUnits="userSpaceOnUse">
      <stop offset="0" stop-color="#0C58B6"/><stop offset="1" stop-color="#063877"/>
    </linearGradient>
    <clipPath id="mmClip0"><path d="M159 231 L56 402 L256 402 Z"/></clipPath>
    <clipPath id="mmClip1"><path d="M296 128 L147 402 L456 402 Z"/></clipPath>
    <linearGradient id="mmSky" x1="0" y1="0" x2="0" y2="630" gradientUnits="userSpaceOnUse">
      <stop offset="0" stop-color="#0C1E36"/><stop offset="1" stop-color="#070F1C"/>
    </linearGradient>
    <radialGradient id="mmHalo" cx="0.22" cy="0.5" r="0.62">
      <stop offset="0" stop-color="#1FA9C9" stop-opacity="0.20"/>
      <stop offset="1" stop-color="#1FA9C9" stop-opacity="0"/>
    </radialGradient>
    <linearGradient id="mmTileSky" x1="0" y1="191" x2="0" y2="439" gradientUnits="userSpaceOnUse">
      <stop offset="0" stop-color="#FFFFFF"/><stop offset="1" stop-color="#EAF1F7"/>
    </linearGradient>
    <radialGradient id="mmTileGlow" cx="0.5" cy="0.751" r="0.55">
      <stop offset="0" stop-color="#1FA9C9" stop-opacity="0.2"/>
      <stop offset="1" stop-color="#1FA9C9" stop-opacity="0"/>
    </radialGradient>
    <clipPath id="mmTile"><rect x="96" y="191" width="248" height="248" rx="56"/></clipPath>
  </defs>

  <rect width="1200" height="630" fill="url(#mmSky)"/>
  <rect width="1200" height="630" fill="url(#mmHalo)"/>
  <path d="M0 630 L210 500 L400 566 L610 470 L820 548 L1010 452 L1200 520 L1200 630 Z" fill="#0E2138"/>
  <path d="M0 630 L260 566 L520 604 L780 552 L1030 598 L1200 566 L1200 630 Z" fill="#122B47"/>

  <g clip-path="url(#mmTile)">
    <rect x="96" y="191" width="248" height="248" fill="url(#mmTileSky)"/>
    <rect x="96" y="191" width="248" height="248" fill="url(#mmTileGlow)"/>
    <g transform="translate(108.40 201.90) scale(0.4359)">
      <path d="M159 231 L56 402 L170 402 Z" fill="url(#mmTealLit)"/>
      <path d="M159 231 L170 402 L256 402 Z" fill="url(#mmTealShade)"/>
      <g clip-path="url(#mmClip0)" fill="none" stroke="#ffffff" stroke-opacity="0.22" stroke-width="3.5">
        <path d="M-41 272 Q159 292 359 272"/>
        <path d="M-41 304 Q159 324 359 304"/>
        <path d="M-41 336 Q159 356 359 336"/>
        <path d="M-41 368 Q159 388 359 368"/>
      </g>
      <path d="M296 128 L147 402 L308 402 Z" fill="url(#mmBlueLit)"/>
      <path d="M296 128 L308 402 L456 402 Z" fill="url(#mmBlueShade)"/>
      <g clip-path="url(#mmClip1)" fill="none" stroke="#ffffff" stroke-opacity="0.22" stroke-width="3.5">
        <path d="M56 176 Q296 196 536 176"/>
        <path d="M56 208 Q296 228 536 208"/>
        <path d="M56 240 Q296 260 536 240"/>
        <path d="M56 272 Q296 292 536 272"/>
        <path d="M56 304 Q296 324 536 304"/>
        <path d="M56 336 Q296 356 536 336"/>
        <path d="M56 368 Q296 388 536 368"/>
      </g>
    </g>
  </g>

  <text x="392" y="300" font-family="system-ui,-apple-system,Segoe UI,Roboto,Helvetica,Arial,sans-serif" font-size="86" font-weight="700" fill="#ffffff">Massif Maps</text>
  <text x="394" y="350" font-family="system-ui,-apple-system,Segoe UI,Roboto,Helvetica,Arial,sans-serif" font-size="26" fill="#93AECB">Vector maps, 3D terrain, routing &amp; geocoding &#8212; one C++ core</text>
    <g>
      <rect x="392" y="384" width="168" height="52" rx="26" fill="#16273F" stroke="#26405F" stroke-width="2"/>
      <circle cx="422" cy="410" r="7" fill="#00C4B3"/>
      <text x="488" y="419" text-anchor="middle" font-family="system-ui,-apple-system,Segoe UI,Roboto,Helvetica,Arial,sans-serif" font-size="24" font-weight="600" fill="#C3D6EA">Android</text>
    </g>
    <g>
      <rect x="574" y="384" width="114" height="52" rx="26" fill="#16273F" stroke="#26405F" stroke-width="2"/>
      <circle cx="604" cy="410" r="7" fill="#2C8BF0"/>
      <text x="643" y="419" text-anchor="middle" font-family="system-ui,-apple-system,Segoe UI,Roboto,Helvetica,Arial,sans-serif" font-size="24" font-weight="600" fill="#C3D6EA">iOS</text>
    </g>
    <g>
      <rect x="702" y="384" width="226" height="52" rx="26" fill="#16273F" stroke="#26405F" stroke-width="2"/>
      <circle cx="732" cy="410" r="7" fill="#C8763C"/>
      <text x="827" y="419" text-anchor="middle" font-family="system-ui,-apple-system,Segoe UI,Roboto,Helvetica,Arial,sans-serif" font-size="24" font-weight="600" fill="#C3D6EA">NativeScript</text>
    </g>
    <g>
      <rect x="942" y="384" width="142" height="52" rx="26" fill="none" stroke="#2B4463" stroke-width="2" stroke-dasharray="7 7"/>
      
      <text x="1013" y="419" text-anchor="middle" font-family="system-ui,-apple-system,Segoe UI,Roboto,Helvetica,Arial,sans-serif" font-size="24" font-weight="600" fill="#C3D6EA">+ more</text>
    </g>
</svg>
